<?xml version="1.0" encoding="utf-8"?>
<!-- Generator: Adobe Illustrator 24.1.2, SVG Export Plug-In . SVG Version: 6.00 Build 0)  -->
<svg version="1.1" id="Layer_1" xmlns="http://www.w3.org/2000/svg" xmlns:xlink="http://www.w3.org/1999/xlink" x="0px" y="0px"
	 width="261.3px" height="100px" viewBox="0 0 261.3 100" style="enable-background:new 0 0 261.3 100;" xml:space="preserve">
<style type="text/css">
	.st0{fill:#00A94F;}
	.st1{fill:#004990;}
</style>
<g>
	<path class="st0" d="M142.3,16.8c-11.5,13.3-38.7,22.7-70.4,22.7c-31.9,0-59.3-9.5-70.7-23C16.6,25.9,42.6,32.4,72,32.4
		C101.2,32.4,126.9,26.1,142.3,16.8L142.3,16.8z"/>
	<polygon class="st1" points="62.9,12 80.7,12 71.8,30.7 	"/>
	<path class="st1" d="M117.6,51.4c-5.5-3-11.3-4.4-18.3-4.4c-16.2,0-29.4,9.2-29.4,20.4c0,11.1,13.2,20.2,29.5,20.2
		c4.9,0,9.2-0.7,12.7-2l13.8-20.8h-23.7L97.2,71h13.4l-6.4,9.5c0,0-1.1,0.4-4.2,0.4c-11.1,0-19.5-5.9-19.5-13.6
		c0-7.5,8.4-13.5,19.1-13.5c4.8,0,8.1,0.8,11.7,3L117.6,51.4L117.6,51.4z"/>
	<polygon class="st1" points="197,47.8 186.4,47.8 186.4,86.5 197,86.5 	"/>
	<polygon class="st1" points="143.8,80.1 163.8,80.1 167.7,86.5 179.9,86.5 151.9,45.9 123.8,86.5 135.8,86.5 151.8,60.8 
		159.9,73.8 147.7,73.8 	"/>
	<polygon class="st1" points="223.4,80.1 243.4,80.1 247.3,86.5 259.5,86.5 231.5,45.9 203.5,86.5 215.4,86.5 231.4,60.8 
		239.5,73.8 227.4,73.8 	"/>
</g>
</svg>
